<?xml version="1.0" encoding="UTF-8"?>
<svg id="Lag_2" data-name="Lag 2" xmlns="http://www.w3.org/2000/svg" width="832.71" height="475.97" viewBox="0 0 832.71 475.97">
  <g id="Lag_1-2" data-name="Lag 1">
    <path d="M407.88,433.92C99.98,478.3,12.82,458.5,1.78,425.31c-8.34-25.1,25.97-60.47,50.85-76.27,0,0,94.13-59.77,280,43,8.01,4.43,12.01,6.29,20,10,17.42,8.09,47.55,20.53,49.86,16.39.2-.35.13-.73.11-.88-1.51-8.83-102.94-39.19-172.96-73.51-39.05-19.14-58.57-28.71-75.75-48.11-44.66-50.44-63.74-140.62-28.08-173.31,1.42-1.31,2.48-2.22,3.16-2.52,47.74-21.43,150.15,36.97,213.07,109.7,9.02,10.42,12.94,19.77,65.85,159.13h0s-12.83-49.52-14.25-54.89c-19.84-75.26-72.12-107.36-78.75-171.11-7.29-70.06,43.49-150.16,99.49-161,5.19-1.01,21.09-3.87,38.09,3.17,46.43,19.23,68.1,98.73,51.68,158.32-.92,3.32-5.86,14.44-11.77,27.42-9.1,20-16.49,33.69-21.58,43.35-22.03,41.71-33.04,62.56-40.16,83.86-8.28,24.8-15.75,57.88-15.75,57.89h0s.27,14.45,1.56,14.59c1.8.19,6.03-27.41,6.19-28.47,5.21-33.81,37.56-113.28,110-173,22.92-18.89,83.86-69.13,168.18-68.95,25.11.05,62.87.11,73.06,20.44,17.86,35.64-57.15,114.61-121,161.39-103.86,76.09-228.7,103.98-224,121h0c.92,1.37,271.34-178.72,386.57-25.99,3.9,5.17,22.43,27.95,15.02,47.39-21.6,56.63-239.26,25.5-422.59-10.4v-.02h0Z" style="fill: #fff;"/>
    <path d="M725.91,475.96c-14.01,0-29.39-.54-46.12-1.63-67.68-4.39-159.18-17.81-271.98-39.9-141.04,20.33-246.79,28.66-314.33,24.77-54.76-3.15-85.78-14.5-92.17-33.73-4.78-14.38,4.46-30.83,13.04-42.08,9.7-12.71,24.26-26.04,38.01-34.77.24-.15,24.18-15.04,70.54-17.12,28.55-1.28,69.77,2.26,122.65,20.59-5.52-2.51-10.91-5.05-16.13-7.6-39.05-19.14-58.65-28.75-75.9-48.23-21.61-24.41-38.16-59.38-44.28-93.55-6.41-35.8-.49-65.12,16.23-80.46,1.48-1.37,2.55-2.28,3.3-2.61,22.6-10.14,58.57-3.2,101.28,19.56,36.78,19.6,74.02,48.62,103.8,80.71-9.67-17.24-17.21-35.32-19.45-56.93-3.47-33.31,6.04-70.87,26.08-103.02,19.92-31.97,46.83-53.3,73.81-58.52,13.84-2.69,26.75-1.62,38.38,3.2,21.75,9.01,39.86,32.46,49.7,64.34,9.51,30.84,10.34,65.31,2.28,94.58-.99,3.57-6.52,15.9-11.8,27.49-8.24,18.11-15.08,31.06-20.08,40.51l-1.51,2.86c-21.98,41.62-33.02,62.51-40.13,83.79-8.02,24.01-15.38,56.26-15.72,57.78.11,5.9.55,12.32,1.12,13.83,1.33-2.29,4.04-17.31,5.63-27.84,2.46-15.98,11.6-44.58,29.85-76.96,14.48-25.69,40.17-63.25,80.33-96.36,22.95-18.91,83.8-69.06,168.05-69.06h.45c25.2.05,63.18.13,73.51,20.72,10.36,20.67-10.55,53.31-29.92,77.06-22.98,28.18-57.09,59.94-91.23,84.96-33.97,24.89-70.5,44.75-103.77,60.67,17.46-6.62,34.49-12.11,51.02-16.44,43.8-11.49,83.09-14.46,116.77-8.83,41.15,6.87,74.35,26.69,98.65,58.91l.64.85c14.33,18.74,19.19,34.56,14.44,47.02-7.98,20.91-43.24,31.45-105.02,31.45h-.02ZM408.38,433.53c262.85,51.45,404.69,55.02,421.62,10.63,4.62-12.12-.19-27.61-14.3-46.06l-.65-.85c-24.15-32-57.12-51.69-98.02-58.52-33.54-5.6-72.68-2.64-116.35,8.81-21.16,5.55-43.14,12.99-65.81,22.28-11.52,5.29-22.51,10.09-32.71,14.46-21.86,10.35-44.29,22.3-67.2,35.81-4.11,2.43-6.28,3.47-6.51,3.13l-.07-.15c-2.16-7.81,19.39-16.9,55.1-31.96,5.73-2.42,11.84-4.99,18.27-7.75,11.05-5.23,21.96-10.05,32.71-14.46,36.9-16.94,79.2-38.86,118.11-67.37,34.08-24.97,68.12-56.66,91.05-84.79,34.75-42.61,35.38-64.83,29.8-75.98-10.04-20.04-47.66-20.11-72.56-20.16h-.45c-83.95,0-144.6,49.99-167.45,68.83-40.05,33.02-65.67,70.48-80.11,96.09-18.19,32.25-27.28,60.72-29.73,76.61-.01.07-1.14,7.49-2.48,14.72-2.66,14.34-3.58,14.24-4.25,14.17-.47-.05-1.73-.19-2.01-15.08,0-.12,7.4-32.96,15.78-58.06,7.14-21.35,18.18-42.27,40.19-83.94l1.51-2.87c4.99-9.44,11.83-22.37,20.05-40.46,4.96-10.88,10.77-23.83,11.74-27.35,8.01-29.09,7.19-63.35-2.27-94.01-9.75-31.6-27.65-54.82-49.12-63.71-11.44-4.74-24.17-5.8-37.8-3.14-26.71,5.17-53.37,26.33-73.15,58.07-19.93,31.97-29.38,69.29-25.94,102.39,2.39,23.03,10.87,42.07,21.52,60.37,1.87,2.06,3.71,4.14,5.51,6.22,3.92,4.52,6.95,9.03,13.31,23.72,14.84,23.09,29.64,47.52,38.39,80.72,1.4,5.31,14.12,54.4,14.25,54.89l-.95.3c-29.91-78.77-44.16-116.02-52.56-135.41-1.24-1.93-2.48-3.85-3.72-5.76-5.22-8.07-10.34-16.01-15.05-24.09-30.17-33.29-68.59-63.55-106.52-83.76-42.43-22.61-78.09-29.54-100.4-19.52-.66.29-1.84,1.34-3.03,2.43-16.47,15.1-22.27,44.09-15.93,79.54,6.09,34,22.55,68.79,44.04,93.07,17.12,19.33,36.66,28.91,75.6,47.99,9.38,4.6,19.34,9.13,29.54,13.55,9.06,3.46,18.44,7.35,28.13,11.71,18.41,7.4,36.68,14.32,53.03,20.5,40.55,15.35,61.75,23.57,62.53,28.12.04.25.1.73-.17,1.21-3.13,5.62-45.67-13.94-50.51-16.18-7.98-3.7-11.98-5.56-20.03-10.02-15.76-8.72-30.84-16.23-45.24-22.71-9.42-3.79-18.88-7.7-28.13-11.7-59.35-22.65-105.1-26.94-135.98-25.56-46.13,2.05-69.91,16.82-70.14,16.96-25.24,16.03-58.79,51.17-50.64,75.69,14.05,42.25,150.5,45.04,405.55,8.27l.57-.08v.19h.04ZM484.92,391.59c-.35.15-.7.29-1.04.44-31.9,13.46-55.18,23.28-54.62,30.21.86-.46,2.76-1.58,5.2-3.02,17.1-10.09,33.93-19.3,50.46-27.64h0ZM302.59,375.88c9.8,4.75,19.89,9.98,30.28,15.72,8.02,4.43,12.01,6.29,19.97,9.98,22.83,10.6,47.48,19.71,49.21,16.6.1-.19.07-.41.06-.54-.72-4.21-29.07-14.94-61.9-27.37-11.76-4.45-24.53-9.28-37.62-14.4h0ZM358.09,258.75c8.34,19.93,21.83,55.12,47.02,121.46-3.76-14.51-10.92-42.14-11.96-46.04-8.08-30.66-21.37-53.84-35.06-75.42h0ZM339.55,227.71c3.96,6.57,8.17,13.08,12.43,19.67.08.12.15.24.23.36-4.61-10.03-7.27-13.82-10.55-17.62-.7-.81-1.4-1.61-2.11-2.41h0Z"/>
  </g>
</svg>