<?xml version="1.0" encoding="UTF-8"?>
<svg id="Layer_1" data-name="Layer 1" xmlns="http://www.w3.org/2000/svg" viewBox="0 0 87.05 20.66">
  <defs>
    <style>
      .cls-1 {
        fill: #b14933;
      }
    </style>
  </defs>
  <path class="cls-1" d="M3.34,15.52c-.54,0-1.07-.13-1.57-.4s-.87-.65-1.1-1.15c-.15-.32-.26-.66-.32-1.02s-.1-.71-.1-1.06c0-.05,0-.15,0-.3,0-.14.02-.3.04-.48.02-.18.05-.33.08-.45.03-.12.08-.18.14-.18.02.01.03.02.03.03.05.12.08.29.08.52s0,.42.02.57c.04.36.12.75.24,1.18.12.42.29.81.5,1.18.22.36.49.66.81.9.32.23.7.35,1.15.35.49,0,.96-.15,1.42-.46.45-.31.88-.71,1.27-1.22.39-.5.76-1.04,1.09-1.62.33-.58.62-1.13.87-1.67.25-.54.46-1,.62-1.38.23-.58.47-1.16.7-1.75.23-.59.43-1.19.6-1.78.03-.12.07-.24.1-.37.04-.13.06-.25.07-.37-.12-.15-.24-.29-.38-.43-.13-.14-.27-.27-.42-.38-.38-.3-.82-.56-1.31-.79s-.99-.41-1.51-.54c-.52-.13-1.02-.2-1.51-.2-.34,0-.67.05-.98.15-.31.1-.57.27-.76.5-.19.23-.29.56-.29.96,0,.09,0,.18,0,.27,0,.1,0,.19,0,.27,0,.04,0,.11-.02.2-.01.09-.04.14-.1.14-.06,0-.11-.05-.14-.14-.03-.1-.06-.2-.07-.3-.02-.11-.02-.18-.02-.22,0-.15.01-.29.04-.42.03-.13.06-.27.09-.41.14-.59.43-1.01.89-1.26.45-.25.96-.38,1.51-.38.44,0,.9.06,1.4.18s.99.29,1.48.51.95.47,1.38.76.78.6,1.07.93c.03-.03.08-.09.16-.17.07-.08.15-.16.22-.23.07-.07.13-.11.16-.11.05,0,.08.03.08.1,0,.16-.02.33-.06.5-.04.17-.08.34-.12.5.38.55.71,1.2.97,1.94.26.74.46,1.51.59,2.3.13.79.2,1.55.2,2.26v.26c0,.09,0,.17-.02.26.44-.78.93-1.56,1.46-2.35.54-.79,1.12-1.54,1.75-2.26.63-.72,1.29-1.36,1.98-1.91.2-.16.41-.31.62-.46s.42-.29.63-.42l.06-.05c.09-.16.19-.33.3-.51.1-.06.19-.1.29-.1.02,0,.08.02.18.06.1.04.15.06.16.07.3-.13.61-.24.93-.34.32-.1.65-.14.98-.14.09,0,.22.01.41.04.19.03.36.07.53.12.17.05.25.13.25.24,0,.02,0,.05-.02.09-.01.04-.02.07-.03.09l-.14.27c-.05.12-.1.24-.13.38-.03.13-.07.26-.11.38-.01.02-.03.08-.06.18-.03.1-.06.15-.1.15h-.03c-.06-.04-.1-.1-.12-.18-.02-.07-.02-.17-.02-.27,0-.15,0-.31-.02-.47-.01-.17-.07-.31-.18-.42-.11-.12-.33-.18-.65-.18-.29,0-.57.05-.84.14-.27.1-.53.21-.78.35-.23.33-.48.79-.74,1.38-.26.59-.52,1.24-.77,1.95-.25.71-.48,1.43-.69,2.15-.21.72-.37,1.39-.5,2-.12.61-.18,1.11-.18,1.48,0,.25.03.48.1.7.07.22.25.33.55.33.18,0,.31-.06.38-.19.07-.13.15-.21.24-.24.02.01.03.04.03.08,0,.17-.09.32-.26.45s-.37.23-.59.3c-.22.07-.4.1-.55.1-.23,0-.41-.06-.51-.19-.11-.13-.17-.29-.2-.48-.03-.19-.04-.38-.04-.56,0-.42.06-.91.17-1.48.11-.57.26-1.18.45-1.82.19-.64.39-1.28.62-1.92s.45-1.24.69-1.81c.23-.57.45-1.05.66-1.46-.77.58-1.51,1.25-2.22,2.01-.71.76-1.36,1.58-1.94,2.45-.58.87-1.04,1.76-1.39,2.68-.04.1-.08.21-.11.35-.03.14-.05.26-.05.37,0,.06-.05.12-.14.18-.09.05-.19.1-.3.14-.11.04-.18.09-.22.14-.1.12-.18.22-.25.3s-.18.15-.34.2c.01-.21.02-.42.02-.62,0-.2,0-.41,0-.61,0-.73-.04-1.5-.11-2.32-.07-.82-.2-1.63-.38-2.44-.18-.81-.42-1.53-.74-2.18-.22.67-.45,1.34-.68,2.02-.23.67-.48,1.34-.74,2-.22.54-.49,1.11-.81,1.7-.31.59-.67,1.16-1.08,1.7s-.85,1.03-1.34,1.46c-.49.43-1.02.76-1.6.98-.16.06-.33.11-.5.14-.18.03-.35.04-.52.04Z"/>
  <path class="cls-1" d="M20.43,13.66c-.62,0-.93-.31-.93-.94,0-.47.1-.97.29-1.51.19-.54.44-1.06.75-1.55.31-.5.63-.9.98-1.21.41-.35.88-.53,1.42-.53.13,0,.29.02.47.05.19.03.35.09.49.18.14.09.21.22.21.39,0,.25-.09.53-.27.84-.18.31-.35.57-.5.76.05.01.12.03.2.05.08.02.12.06.12.13,0,.03-.03.05-.08.05-.1,0-.19-.01-.29-.03-.1-.02-.19-.03-.29-.03-.36,0-.73.05-1.11.16-.38.11-.74.22-1.08.34-.11.26-.2.54-.28.85-.08.31-.12.6-.12.88,0,.2.04.38.12.54.08.16.24.24.47.24.29,0,.58-.08.89-.25.3-.17.6-.38.88-.64s.54-.54.76-.82c.22-.29.4-.55.53-.78.01.01.02.03.02.06,0,.1-.06.23-.18.39-.12.17-.24.33-.36.49-.12.16-.19.28-.22.35-.01.07-.03.14-.06.19-.03.05-.06.11-.09.18-.18.18-.44.37-.78.55-.34.19-.68.34-1.04.46-.36.12-.67.18-.94.18ZM21.04,10.29c.28-.05.55-.1.82-.13.27-.03.55-.05.82-.05h.26c.09,0,.17,0,.26.02.09-.18.16-.38.22-.59s.09-.42.09-.62c0-.16-.03-.32-.1-.49-.06-.17-.2-.25-.42-.25s-.41.09-.62.26c-.21.17-.38.33-.5.46-.17.2-.32.42-.46.66-.13.24-.26.48-.38.73Z"/>
  <path class="cls-1" d="M25.36,13.65c-.17,0-.29-.04-.35-.13-.06-.08-.1-.21-.1-.37,0-.28.06-.63.19-1.05s.29-.87.48-1.34.38-.93.57-1.36c.19-.43.34-.79.46-1.06-.14.01-.28.02-.42.02s-.28,0-.43.02c-.02-.02-.03-.04-.03-.06,0-.06.04-.14.13-.22s.18-.16.3-.22c.11-.06.19-.09.25-.09h.45c.11-.26.22-.51.33-.77.11-.26.22-.51.31-.77.05-.14.11-.25.18-.34.07-.09.17-.18.3-.26.18-.12.41-.21.67-.29.27-.07.5-.11.7-.11.02,0,.05.01.07.03.03.02.04.04.06.05v.06s-.01.04-.04.03c-.03-.01-.05-.02-.07-.02-.13,0-.28.1-.45.31-.17.21-.35.46-.53.74s-.34.56-.47.82c-.13.26-.23.44-.28.54h.64c.17,0,.34,0,.51,0,.17,0,.34-.02.51-.04l.02.03s-.02,0-.02.02,0,.02-.02.02c-.03.03-.11.08-.24.15s-.26.13-.38.18-.22.09-.27.1c-.17.02-.34.04-.5.05s-.33.02-.5.02c-.11.23-.25.54-.42.93-.17.38-.34.79-.51,1.22-.17.43-.31.84-.42,1.23-.11.39-.17.71-.17.97,0,.06.01.14.03.22.02.09.07.13.16.13.07,0,.15-.03.22-.08.23-.14.47-.33.7-.57.23-.24.44-.5.64-.78s.35-.54.47-.78c.02.01.03.03.03.06,0,.06-.04.16-.11.28-.07.12-.16.25-.26.39-.1.14-.18.26-.26.37-.08.11-.12.17-.12.19-.01.09-.03.15-.06.18-.03.04-.06.1-.09.18-.14.13-.31.29-.53.47s-.44.35-.67.49c-.23.14-.45.21-.66.21Z"/>
  <path class="cls-1" d="M29.23,13.65c-.17,0-.29-.04-.35-.13-.06-.08-.1-.21-.1-.37,0-.28.06-.63.19-1.05s.29-.87.48-1.34.38-.93.57-1.36c.19-.43.34-.79.46-1.06-.14.01-.28.02-.42.02s-.28,0-.43.02c-.02-.02-.03-.04-.03-.06,0-.06.04-.14.13-.22s.18-.16.3-.22c.11-.06.19-.09.25-.09h.45c.11-.26.22-.51.33-.77.11-.26.22-.51.31-.77.05-.14.11-.25.18-.34.07-.09.17-.18.3-.26.18-.12.41-.21.67-.29.27-.07.5-.11.7-.11.02,0,.05.01.07.03.03.02.04.04.06.05v.06s-.01.04-.04.03c-.03-.01-.05-.02-.07-.02-.13,0-.28.1-.45.31-.17.21-.35.46-.53.74s-.34.56-.47.82c-.13.26-.23.44-.28.54h.64c.17,0,.34,0,.51,0,.17,0,.34-.02.51-.04l.02.03s-.02,0-.02.02,0,.02-.02.02c-.03.03-.11.08-.24.15s-.26.13-.38.18-.22.09-.27.1c-.17.02-.34.04-.5.05s-.33.02-.5.02c-.11.23-.25.54-.42.93-.17.38-.34.79-.51,1.22-.17.43-.31.84-.42,1.23-.11.39-.17.71-.17.97,0,.06.01.14.03.22.02.09.07.13.16.13.07,0,.15-.03.22-.08.23-.14.47-.33.7-.57.23-.24.44-.5.64-.78s.35-.54.47-.78c.02.01.03.03.03.06,0,.06-.04.16-.11.28-.07.12-.16.25-.26.39-.1.14-.18.26-.26.37-.08.11-.12.17-.12.19-.01.09-.03.15-.06.18-.03.04-.06.1-.09.18-.14.13-.31.29-.53.47s-.44.35-.67.49c-.23.14-.45.21-.66.21Z"/>
  <path class="cls-1" d="M33.55,13.66c-.62,0-.93-.31-.93-.94,0-.47.1-.97.29-1.51.19-.54.44-1.06.75-1.55.31-.5.63-.9.98-1.21.41-.35.88-.53,1.42-.53.13,0,.29.02.47.05.19.03.35.09.49.18.14.09.21.22.21.39,0,.25-.09.53-.27.84-.18.31-.35.57-.5.76.05.01.12.03.2.05.08.02.12.06.12.13,0,.03-.03.05-.08.05-.1,0-.19-.01-.29-.03-.1-.02-.19-.03-.29-.03-.36,0-.73.05-1.11.16-.38.11-.74.22-1.08.34-.11.26-.2.54-.28.85-.08.31-.12.6-.12.88,0,.2.04.38.12.54.08.16.24.24.47.24.29,0,.58-.08.89-.25.3-.17.6-.38.88-.64s.54-.54.76-.82c.22-.29.4-.55.53-.78.01.01.02.03.02.06,0,.1-.06.23-.18.39-.12.17-.24.33-.36.49-.12.16-.19.28-.22.35-.01.07-.03.14-.06.19-.03.05-.06.11-.09.18-.18.18-.44.37-.78.55-.34.19-.68.34-1.04.46-.36.12-.67.18-.94.18ZM34.16,10.29c.28-.05.55-.1.82-.13.27-.03.55-.05.82-.05h.26c.09,0,.17,0,.26.02.09-.18.16-.38.22-.59s.09-.42.09-.62c0-.16-.03-.32-.1-.49-.06-.17-.2-.25-.42-.25s-.41.09-.62.26c-.21.17-.38.33-.5.46-.17.2-.32.42-.46.66-.13.24-.26.48-.38.73Z"/>
  <path class="cls-1" d="M47.54,14.75c-.13,0-.25-.02-.37-.05s-.23-.07-.35-.11c-.21-.1-.44-.26-.69-.49s-.45-.48-.62-.76c-.16-.28-.25-.54-.25-.78v-.1c0-.06,0-.09.02-.09.09,0,.16.05.22.14.06.09.11.16.15.22.2.23.44.46.72.69s.58.41.9.56c.32.15.63.22.94.22.27,0,.52-.07.77-.21.25-.14.46-.29.66-.46.46-.39.89-.9,1.3-1.5.41-.61.79-1.27,1.15-1.98.36-.71.68-1.41.98-2.1.29-.69.56-1.32.79-1.89.13-.32.25-.64.35-.97.11-.33.23-.65.37-.97-.97-.2-1.95-.41-2.94-.62-.99-.21-1.99-.31-3-.31-.31,0-.63.02-.98.06-.34.04-.66.13-.95.25-.29.12-.53.3-.72.54s-.28.55-.28.94c0,.31.05.62.16.94.11.32.23.62.37.9.15.32.31.57.5.74.18.18.43.34.75.49.02.01.06.03.1.06.05.03.07.06.07.1,0,.03-.02.05-.06.06-.04.01-.07.02-.09.02-.01,0-.02,0-.04,0-.02,0-.04,0-.06,0-.41-.08-.79-.28-1.17-.58-.37-.3-.68-.65-.91-1.06-.23-.41-.35-.82-.35-1.24,0-.37.1-.71.29-1.01.07-.13.21-.28.42-.46.2-.18.43-.35.68-.53.25-.18.49-.34.73-.48.23-.14.42-.24.56-.3.3-.12.6-.19.91-.23.31-.04.62-.06.93-.06.76,0,1.52.07,2.3.22s1.55.32,2.32.54c.77.21,1.52.42,2.23.62.29.09.62.18,1.01.3.38.11.77.21,1.16.29.39.08.73.12,1.02.12.31,0,.63-.04.97-.11s.62-.21.86-.41c.23-.2.35-.49.35-.87,0-.12-.02-.22-.05-.32s-.05-.2-.05-.3c0-.06.02-.1.06-.1.12,0,.22.09.3.26.08.18.13.31.13.39l-.02.06c-.02.52-.16.93-.42,1.22-.26.29-.6.49-1.01.61-.41.12-.85.18-1.32.18-.63,0-1.26-.07-1.89-.2-.63-.13-1.25-.27-1.86-.42-.29.61-.56,1.22-.82,1.85-.26.62-.53,1.25-.79,1.88-.35.82-.73,1.61-1.14,2.37-.41.76-.9,1.45-1.46,2.09-.57.63-1.26,1.17-2.1,1.61-.25.13-.53.25-.85.38-.32.12-.62.18-.9.18Z"/>
  <path class="cls-1" d="M55.31,13.81s-.03,0-.03-.02c0-.04.02-.08.06-.12.04-.04.07-.07.09-.1.08-.14.17-.32.26-.55.08-.23.17-.46.25-.7.08-.24.15-.44.2-.6.21-.63.42-1.26.62-1.9.2-.64.42-1.27.66-1.9.14-.37.3-.8.5-1.27.19-.47.42-.95.67-1.43s.55-.92.87-1.32c.33-.4.69-.72,1.1-.97.4-.25.85-.37,1.34-.37.53,0,.89.1,1.06.29.18.19.26.39.26.59,0,.09-.03.14-.09.16-.06.02-.09,0-.09-.08,0-.22-.09-.41-.27-.55-.18-.14-.39-.22-.64-.22-.22,0-.46.08-.71.25-.25.17-.49.36-.71.58-.22.22-.4.42-.53.59-.43.58-.77,1.11-1.04,1.6s-.49.97-.68,1.44-.36.97-.53,1.49c-.17.52-.36,1.1-.58,1.74v.06s0,.05.02.05l.05-.05c.33-.44.67-.87,1.02-1.29.35-.42.76-.77,1.26-1.03.07-.04.16-.09.26-.14s.19-.07.27-.07c.14,0,.22.06.25.18.03.12.04.24.04.34,0,.22-.07.51-.22.87-.14.36-.31.74-.51,1.16s-.37.82-.51,1.22c-.14.4-.22.76-.22,1.08,0,.04,0,.09.02.15.02.06.06.09.12.09.11,0,.25-.09.43-.26s.35-.37.51-.58c.16-.21.26-.36.3-.46.04.04.06.08.06.1,0,.1-.09.25-.28.46-.19.21-.41.42-.66.65s-.5.42-.74.58c-.23.16-.4.24-.5.24-.11,0-.18-.08-.22-.24-.04-.16-.06-.28-.06-.35,0-.2.04-.46.14-.77.09-.31.2-.63.34-.98.13-.34.27-.67.4-.98.13-.31.24-.56.33-.77.03-.06.08-.18.14-.34.06-.17.1-.29.1-.36,0-.05,0-.11-.02-.18-.02-.06-.06-.1-.14-.1-.12,0-.26.07-.42.21s-.29.25-.38.34c-.46.5-.86,1.07-1.19,1.7-.34.63-.61,1.28-.82,1.93-.02.09-.04.14-.05.18-.01.03-.06.08-.14.14-.03.01-.13.06-.3.16s-.32.19-.47.28c-.15.09-.23.14-.24.14Z"/>
  <path class="cls-1" d="M61.98,13.63c-.17,0-.28-.07-.33-.2s-.07-.27-.07-.41c0-.5.1-1.04.29-1.62.19-.58.44-1.13.75-1.66.31-.53.65-.96,1.01-1.3.38-.35.84-.53,1.36-.53.21,0,.42.02.63.07.21.05.41.11.62.2.18-.13.38-.24.59-.34.21-.1.43-.14.66-.14.05,0,.1.03.13.1v.05s-.01.05-.04.04-.05,0-.07,0c-.17,0-.36.13-.56.39-.2.26-.41.59-.61,1-.2.41-.39.83-.55,1.28-.17.45-.3.86-.4,1.23-.1.37-.15.66-.15.85,0,.07.01.16.04.26.03.1.09.14.18.14.05,0,.1-.01.14-.03.04-.02.08-.04.12-.06.23-.14.47-.33.7-.57.23-.24.44-.5.64-.78.2-.28.36-.54.49-.78.01.01.02.03.02.06,0,.06-.04.16-.11.28s-.16.25-.26.39-.18.26-.26.37c-.08.11-.12.17-.12.19-.01.07-.03.14-.05.18-.02.05-.05.11-.1.18-.14.14-.31.3-.53.48-.21.18-.44.34-.66.47-.23.13-.45.2-.66.2-.33,0-.5-.18-.5-.53,0-.21.04-.46.14-.74.09-.28.2-.56.32-.85.12-.28.23-.52.33-.71v-.05s0-.03-.02-.03-.03.01-.05.03c-.13.17-.31.42-.56.74-.25.32-.51.64-.81.97-.29.33-.59.6-.89.83-.3.23-.56.34-.78.34ZM62.69,12.94c.12,0,.26-.08.44-.23.18-.15.36-.34.56-.56.2-.22.37-.43.53-.63.15-.2.26-.35.33-.45.13-.19.27-.43.44-.72s.31-.59.43-.9c.12-.31.18-.57.18-.78,0-.33-.17-.5-.5-.5-.19,0-.39.09-.61.26-.21.17-.38.33-.51.46-.14.17-.3.42-.47.74-.18.32-.34.67-.49,1.04-.15.37-.27.73-.38,1.07s-.15.62-.15.85c0,.06.01.14.03.22.02.09.07.13.16.13Z"/>
  <path class="cls-1" d="M68.06,13.65c-.17,0-.29-.04-.35-.13-.06-.08-.1-.21-.1-.37,0-.35.07-.78.22-1.28.14-.5.31-1.01.49-1.53.18-.52.33-.98.43-1.38.04-.15.15-.25.31-.31.17-.06.31-.13.42-.22.17-.12.35-.22.54-.3s.39-.12.61-.12c.05,0,.09.01.1.03s.02.04.02.05c0,.06-.04.1-.11.1-.15,0-.3.09-.46.26-.16.18-.32.4-.48.68s-.3.57-.43.86c-.13.3-.24.57-.34.82s-.16.43-.19.55c-.05.17-.11.37-.16.6-.05.23-.08.44-.08.63,0,.07,0,.16.03.26.02.1.09.15.19.15.07,0,.15-.03.24-.08.23-.14.47-.33.7-.57.23-.24.44-.5.64-.78.2-.28.35-.54.47-.78.02.01.03.03.03.06,0,.06-.04.16-.11.28s-.16.25-.26.39-.18.26-.26.37c-.08.11-.12.17-.12.19-.01.09-.03.15-.05.18-.02.04-.05.1-.1.18-.13.13-.3.29-.51.47-.21.19-.44.35-.67.49-.24.14-.46.21-.67.21ZM70.77,6.72c-.09,0-.22-.03-.39-.1s-.26-.16-.26-.26c0-.01,0-.02,0-.02,0,0,0-.01,0-.02.05-.11.17-.17.36-.19s.33-.05.42-.1c.21-.09.42-.15.62-.21.2-.05.39-.15.58-.29.04.02.06.04.06.06,0,.04-.04.1-.14.18s-.15.14-.18.19c-.04.06-.14.16-.28.28-.14.12-.3.23-.46.34-.16.1-.28.15-.35.15Z"/>
  <path class="cls-1" d="M71.34,13.73c-.2,0-.43-.04-.67-.11-.25-.07-.43-.21-.54-.42v-.03c0-.05.07-.14.2-.25.13-.11.27-.22.42-.34.15-.11.25-.19.29-.25l.11-.03.03.06c-.07.06-.11.13-.11.21,0,.16.06.29.18.4.12.11.27.19.43.24.17.05.31.08.44.08.15,0,.34-.04.57-.13.23-.08.43-.2.62-.35.18-.15.27-.31.27-.5,0-.28-.09-.52-.26-.72-.17-.2-.37-.39-.59-.58-.22-.18-.42-.37-.59-.58-.17-.2-.26-.44-.26-.7,0-.31.09-.59.28-.84s.43-.46.72-.64c.29-.18.6-.31.92-.4.32-.09.61-.14.88-.14.04,0,.14,0,.29.02.15.02.29.04.42.08.13.04.2.09.2.15,0,.02,0,.03-.02.03h-.03l-.13-.03c.03.08.05.17.05.27,0,.1-.02.22-.06.37-.04.15-.09.27-.14.35-.01.02-.06.09-.16.21-.1.12-.19.23-.29.34-.1.11-.16.16-.18.16l-.02-.03c.02-.05.09-.15.21-.28s.18-.31.18-.52c0-.22-.1-.41-.3-.55-.2-.14-.41-.22-.62-.22s-.41.06-.63.19-.4.29-.54.5c-.14.2-.22.41-.22.62,0,.19.09.39.28.6s.4.42.64.62c.24.21.45.41.64.62.19.2.28.4.28.58v.05c0,.27-.12.51-.35.74s-.53.43-.88.6c-.35.17-.71.3-1.06.39-.36.09-.65.14-.89.14Z"/>
  <path class="cls-1" d="M76.88,13.66c-.62,0-.93-.31-.93-.94,0-.47.1-.97.29-1.51.19-.54.44-1.06.75-1.55.31-.5.63-.9.98-1.21.41-.35.88-.53,1.42-.53.13,0,.29.02.47.05.19.03.35.09.49.18.14.09.21.22.21.39,0,.25-.09.53-.27.84-.18.31-.35.57-.5.76.05.01.12.03.2.05.08.02.12.06.12.13,0,.03-.03.05-.08.05-.1,0-.19-.01-.29-.03-.1-.02-.19-.03-.29-.03-.36,0-.73.05-1.11.16-.38.11-.74.22-1.08.34-.11.26-.2.54-.28.85-.08.31-.12.6-.12.88,0,.2.04.38.12.54.08.16.24.24.47.24.29,0,.58-.08.89-.25.3-.17.6-.38.88-.64s.54-.54.76-.82c.22-.29.4-.55.53-.78.01.01.02.03.02.06,0,.1-.06.23-.18.39-.12.17-.24.33-.36.49-.12.16-.19.28-.22.35-.01.07-.03.14-.06.19s-.06.11-.09.18c-.18.18-.44.37-.78.55s-.68.34-1.04.46c-.36.12-.67.18-.94.18ZM77.49,10.29c.28-.05.55-.1.82-.13.27-.03.55-.05.82-.05h.26c.08,0,.17,0,.26.02.09-.18.16-.38.22-.59s.09-.42.09-.62c0-.16-.03-.32-.1-.49-.06-.17-.2-.25-.42-.25-.2,0-.41.09-.62.26-.21.17-.38.33-.5.46-.17.2-.32.42-.46.66-.13.24-.26.48-.38.73Z"/>
  <path class="cls-1" d="M80.85,13.81s-.02,0-.02-.02c0-.04.02-.09.06-.13s.06-.07.07-.1c.07-.12.16-.32.26-.6s.2-.6.3-.96.2-.72.29-1.09c.09-.37.17-.71.25-1.02.07-.31.13-.54.16-.7.02-.09.04-.2.06-.34.02-.14.05-.28.1-.42.04-.14.09-.23.14-.27.11-.09.25-.16.44-.22s.38-.11.58-.15c.2-.04.37-.06.5-.06.02,0,.05.01.08.03.03.02.05.04.06.06v.05s-.01.05-.03.04c-.02,0-.04,0-.06,0-.23,0-.44.13-.62.39-.18.26-.34.58-.46.96-.13.38-.24.74-.32,1.1s-.15.62-.19.8c.34-.59.73-1.15,1.18-1.69.44-.54.96-.97,1.56-1.3.08-.04.16-.09.26-.14.1-.05.18-.07.26-.07.14,0,.22.06.26.18.03.12.05.24.05.34,0,.14-.05.34-.14.61-.1.27-.21.53-.33.79-.12.26-.22.47-.28.62-.06.17-.14.39-.22.66-.08.27-.16.53-.22.8s-.1.49-.1.67c0,.07,0,.16.03.26.02.1.08.14.18.14.05,0,.1-.01.14-.03s.08-.04.12-.06c.25-.14.48-.33.71-.57.23-.24.44-.5.63-.78s.35-.54.48-.78c0,.01.02.03.02.06,0,.06-.04.16-.11.28-.07.12-.16.25-.26.39s-.18.26-.26.37c-.08.11-.12.17-.12.19-.01.07-.03.14-.05.18-.02.05-.05.11-.08.18-.13.13-.31.29-.55.47-.24.19-.49.35-.74.5-.25.14-.47.22-.66.22-.17,0-.29-.07-.34-.2-.06-.13-.09-.27-.09-.42,0-.29.06-.63.18-1.03.12-.4.26-.8.42-1.2s.29-.74.4-1.02c.03-.08.08-.22.15-.4.07-.18.1-.31.1-.38,0-.05,0-.11-.02-.18s-.07-.1-.15-.1c-.11,0-.24.07-.41.21-.17.14-.29.25-.38.34-.46.51-.85,1.08-1.18,1.7s-.61,1.27-.83,1.93c-.03.09-.05.15-.06.18,0,.04-.05.08-.14.14-.03.02-.13.08-.3.18-.17.1-.33.19-.48.27-.15.08-.24.13-.25.13Z"/>
</svg>